<?xml version="1.0" encoding="utf-8"?>
<!-- Generator: Adobe Illustrator 21.1.0, SVG Export Plug-In . SVG Version: 6.00 Build 0)  -->
<svg version="1.1" id="Layer_1" xmlns="http://www.w3.org/2000/svg" xmlns:xlink="http://www.w3.org/1999/xlink" x="0px" y="0px"
	 viewBox="0 0 256 256" style="enable-background:new 0 0 256 256;" xml:space="preserve">
<style type="text/css">
	.st0{enable-background:new    ;}
	.st1{fill:url(#SVGID_1_);}
	.st2{fill:#FFFFFF;}
</style>
<text transform="matrix(1 0 0 1 213 1137)" style="font-family:'MyriadPro-Regular'; font-size:12px;">#FC431E</text>
<g>
	
		<linearGradient id="SVGID_1_" gradientUnits="userSpaceOnUse" x1="-977" y1="-89" x2="-721" y2="-89" gradientTransform="matrix(-6.123234e-17 -1 -1 6.123234e-17 39 -721)">
		<stop  offset="0" style="stop-color:#6F112E"/>
		<stop  offset="0.9989" style="stop-color:#23081D"/>
	</linearGradient>
	<path class="st1" d="M256,6v244c0,3.3-2.7,6-6,6H6c-3.3,0-6-2.7-6-6V6c0-3.3,2.7-6,6-6h244C253.3,0,256,2.7,256,6z"/>
	<g>
		<path class="st2" d="M122.4,121.5V57.3c-39.2,0-70.9,31.7-70.9,70.9s31.7,70.9,70.9,70.9v-64.2c3.4,36,33.7,64.2,70.6,64.2V57.3
			C156.1,57.3,125.8,85.5,122.4,121.5z"/>
	</g>
</g>
</svg>
